<svg width="25" height="25" viewBox="0 0 25 25" fill="none" xmlns="http://www.w3.org/2000/svg">
<path d="M18.5574 1.75284L23.2474 6.44478L24.0287 5.66216C24.3366 5.35417 24.5809 4.98852 24.7476 4.58611C24.9142 4.18369 25 3.75239 25 3.31682C25 2.88125 24.9142 2.44994 24.7476 2.04753C24.5809 1.64511 24.3366 1.27947 24.0287 0.971473C23.7207 0.663478 23.3551 0.419163 22.9528 0.252478C22.5504 0.085792 22.1192 0 21.6837 0C20.8041 0 19.9606 0.349449 19.3387 0.971473L18.5574 1.75284ZM21.0937 8.59384L16.4037 3.9019L1.5225 18.7866L0 25L6.21248 23.4785L21.0937 8.59384Z" fill="#402712"/>
</svg>
