<svg width="30" height="30" viewBox="0 0 30 30" fill="none" xmlns="http://www.w3.org/2000/svg">
<path d="M22.5 3.28125H11.25C10.8772 3.28167 10.5197 3.42996 10.2561 3.69359C9.99246 3.95722 9.84417 4.31467 9.84375 4.6875V7.03125H7.5C7.12717 7.03167 6.76972 7.17996 6.50609 7.44359C6.24246 7.70722 6.09417 8.06467 6.09375 8.4375V26.25C6.09376 26.3361 6.11749 26.4206 6.16235 26.4941C6.2072 26.5676 6.27145 26.6274 6.34803 26.6668C6.42461 26.7062 6.51057 26.7237 6.59647 26.7175C6.68238 26.7113 6.7649 26.6815 6.83498 26.6314L13.1241 22.1386L19.4151 26.6314C19.4852 26.6815 19.5677 26.7113 19.6536 26.7175C19.7395 26.7238 19.8254 26.7062 19.902 26.6668C19.9786 26.6274 20.0428 26.5676 20.0877 26.4941C20.1325 26.4206 20.1563 26.3361 20.1562 26.25V20.7325L23.1651 22.8814C23.2352 22.9315 23.3177 22.9613 23.4036 22.9675C23.4895 22.9738 23.5754 22.9562 23.652 22.9168C23.7286 22.8774 23.7928 22.8176 23.8377 22.7441C23.8825 22.6706 23.9063 22.5861 23.9062 22.5V4.6875C23.9058 4.31467 23.7575 3.95722 23.4939 3.69359C23.2303 3.42996 22.8728 3.28167 22.5 3.28125ZM19.2188 25.3392L13.3966 21.1811C13.3171 21.1243 13.2218 21.0938 13.1241 21.0938C13.0264 21.0938 12.9312 21.1243 12.8517 21.1811L7.03125 25.3391V8.4375C7.03138 8.31322 7.08081 8.19407 7.16869 8.10619C7.25657 8.01831 7.37572 7.96888 7.5 7.96875H18.75C18.8743 7.96888 18.9934 8.01831 19.0813 8.10619C19.1692 8.19407 19.2186 8.31322 19.2188 8.4375V25.3392ZM22.9688 21.5892L20.1562 19.5805V8.4375C20.1558 8.06467 20.0075 7.70722 19.7439 7.44359C19.4803 7.17996 19.1228 7.03167 18.75 7.03125H10.7812V4.6875C10.7814 4.56322 10.8308 4.44407 10.9187 4.35619C11.0066 4.26831 11.1257 4.21888 11.25 4.21875H22.5C22.6243 4.21888 22.7434 4.26831 22.8313 4.35619C22.9192 4.44407 22.9686 4.56322 22.9688 4.6875V21.5892Z" fill="#402712"/>
</svg>
