<svg width="25" height="26" viewBox="0 0 25 26" fill="none" xmlns="http://www.w3.org/2000/svg">
<path d="M21.4199 25.3305H3.6229C3.12679 25.3104 2.63952 25.1927 2.189 24.9841C1.73848 24.7757 1.33354 24.4805 0.997355 24.1157C0.661172 23.7508 0.40034 23.3232 0.229795 22.8577C0.0592494 22.3919 -0.0176899 21.8974 0.00341191 21.4019V17.1162C0.00341191 16.8321 0.11646 16.5595 0.317678 16.3587C0.51891 16.1577 0.791817 16.0448 1.07638 16.0448C1.36096 16.0448 1.63387 16.1577 1.83509 16.3587C2.03632 16.5595 2.14935 16.8321 2.14935 17.1162V21.4019C2.11243 21.8261 2.24041 22.2482 2.50678 22.5807C2.77314 22.9132 3.15745 23.1305 3.57998 23.1877H21.4199C21.8425 23.1305 22.2268 22.9132 22.4932 22.5807C22.7596 22.2482 22.8875 21.8261 22.8505 21.4019V17.1162C22.8505 16.8321 22.9636 16.5595 23.1649 16.3587C23.366 16.1577 23.639 16.0448 23.9235 16.0448C24.2081 16.0448 24.481 16.1577 24.6822 16.3587C24.8835 16.5595 24.9965 16.8321 24.9965 17.1162V21.4019C25.0394 22.3954 24.6876 23.3654 24.0178 24.1011C23.348 24.8369 22.4143 25.2787 21.4199 25.3305Z" fill="#402712"/>
<path d="M12.5217 18.1878C12.3807 18.1883 12.241 18.1609 12.1108 18.1069C11.9806 18.053 11.8624 17.9736 11.7634 17.8735L6.04091 12.1592C5.85138 11.956 5.7482 11.6873 5.7531 11.4097C5.758 11.1322 5.87061 10.8675 6.0672 10.671C6.26379 10.4748 6.52901 10.3623 6.80698 10.3575C7.08495 10.3526 7.35397 10.4556 7.55738 10.6449L12.5217 15.602L17.4859 10.6449C17.6894 10.4556 17.9583 10.3526 18.2363 10.3575C18.5143 10.3623 18.7795 10.4748 18.9761 10.671C19.1726 10.8675 19.2852 11.1322 19.2902 11.4097C19.2951 11.6873 19.192 11.956 19.0024 12.1592L13.2799 17.8735C13.1809 17.9736 13.0627 18.053 12.9325 18.1069C12.8023 18.1609 12.6626 18.1883 12.5217 18.1878Z" fill="#402712"/>
<path d="M12.5212 18.1877C12.2378 18.184 11.967 18.07 11.7666 17.8699C11.5661 17.6697 11.452 17.3993 11.4482 17.1163V1.40199C11.4482 1.11784 11.5613 0.845309 11.7626 0.644381C11.9637 0.443452 12.2367 0.330566 12.5212 0.330566C12.8058 0.330566 13.0787 0.443452 13.2799 0.644381C13.4812 0.845309 13.5942 1.11784 13.5942 1.40199V17.1163C13.5905 17.3993 13.4763 17.6697 13.2759 17.8699C13.0754 18.07 12.8046 18.184 12.5212 18.1877Z" fill="#402712"/>
</svg>
