<svg width="23" height="23" viewBox="0 0 23 23" fill="none" xmlns="http://www.w3.org/2000/svg">
<path fill-rule="evenodd" clip-rule="evenodd" d="M2.79196e-10 2.60428C-2.08335e-05 1.16599 1.16593 2.07238e-05 2.60421 1.03069e-05L10.491 0C11.3198 0 12.1147 0.329248 12.7008 0.915316L20.9296 9.14417C22.5568 10.7714 22.5568 13.4097 20.9296 15.0369L15.0369 20.9296C13.4096 22.5568 10.7715 22.5568 9.14424 20.9296L0.915383 12.7007C0.32933 12.1147 8.33102e-05 11.3198 7.28933e-05 10.491L2.79196e-10 2.60428ZM6.82336 8.38581C7.68632 8.38581 8.38589 7.68624 8.38589 6.82327C8.38589 5.9603 7.68632 5.26073 6.82336 5.26073C5.96039 5.26073 5.26083 5.9603 5.26083 6.82327C5.26083 7.68624 5.96039 8.38581 6.82336 8.38581Z" fill="#402712"/>
</svg>
