<svg width="63" height="62" viewBox="0 0 63 62" fill="none" xmlns="http://www.w3.org/2000/svg">
<path d="M42.328 8.00999C45.019 11.0575 46.774 14.22 50.9275 18.59C55.1395 22.9025 61.8085 28.48 62.218 33.4825C62.6275 38.485 56.7775 42.97 50.8105 48.835C44.785 54.6425 38.6425 61.7725 32.383 61.945C26.1235 62.1175 19.6885 55.275 19.513 47.6275C19.3375 39.9225 25.363 31.4125 21.268 24.7425C17.173 18.0725 2.89901 13.3 0.55901 9.79249C-1.78099 6.28499 7.75451 4.09999 15.0085 2.48999C22.321 0.879992 27.4105 -0.0400082 31.7395 0.937492C36.0685 1.97249 39.6955 4.96249 42.328 8.00999Z" fill="#736D4F" fill-opacity="0.9"/>
</svg>
