<svg width="56" height="76" viewBox="0 0 56 76" fill="none" xmlns="http://www.w3.org/2000/svg">
<path d="M36.9561 18.4195C43.1881 18.92 53.9041 17.49 54.6641 19.1345C55.4241 20.8505 46.0761 25.641 46.6081 36.366C47.1401 47.091 57.4761 63.7505 55.8041 70.972C54.2081 78.1935 40.6041 76.0485 33.6881 67.397C26.8481 58.674 26.6961 43.373 22.7441 36.8665C18.7921 30.2885 11.0401 32.505 6.70806 31.075C2.45206 29.645 1.54006 24.5685 1.00806 17.5615C0.476063 10.5545 0.248063 1.617 4.65606 0.473001C9.06406 -0.670999 18.0321 6.05 23.4281 10.626C28.8241 15.2735 30.6481 17.8475 36.9561 18.4195Z" fill="#736D4F"/>
</svg>
